<svg width="103" height="19" viewBox="0 0 103 19" fill="none" xmlns="http://www.w3.org/2000/svg">
<path d="M4.99789 16.7827V4.37434H0.633567V1.80709H12.1862V4.37434H7.82187V16.7827H4.99789ZM14.1093 16.7827V1.80709H23.7365V4.37434H16.9333V7.9471H23.1375V10.5143H16.9333V14.2155H23.8648V16.7827H14.1093ZM25.9552 16.7827V1.80709H32.4589C33.4003 1.80709 34.2204 1.97111 34.9192 2.29914C35.6181 2.62718 36.1601 3.09071 36.5452 3.68974C36.9302 4.28876 37.1228 4.99476 37.1228 5.80772V6.06444C37.1228 6.96298 36.9088 7.69037 36.481 8.24661C36.0531 8.80285 35.5254 9.20933 34.8978 9.46605V9.85114C35.4683 9.87966 35.9105 10.0793 36.2242 10.4502C36.538 10.8067 36.6949 11.2845 36.6949 11.8835V16.7827H33.8709V12.29C33.8709 11.9477 33.7782 11.6696 33.5928 11.4557C33.4217 11.2417 33.1293 11.1348 32.7157 11.1348H28.7792V16.7827H25.9552ZM28.7792 8.56751H32.1594C32.8298 8.56751 33.3504 8.38923 33.7212 8.03267C34.1063 7.66185 34.2988 7.17692 34.2988 6.57789V6.36396C34.2988 5.76493 34.1134 5.28714 33.7426 4.93058C33.3717 4.55975 32.844 4.37434 32.1594 4.37434H28.7792V8.56751ZM39.4726 16.7827V1.80709H45.9763C46.9176 1.80709 47.7377 1.97111 48.4366 2.29914C49.1354 2.62718 49.6774 3.09071 50.0625 3.68974C50.4476 4.28876 50.6401 4.99476 50.6401 5.80772V6.06444C50.6401 6.96298 50.4262 7.69037 49.9983 8.24661C49.5704 8.80285 49.0427 9.20933 48.4152 9.46605V9.85114C48.9857 9.87966 49.4278 10.0793 49.7416 10.4502C50.0554 10.8067 50.2122 11.2845 50.2122 11.8835V16.7827H47.3883V12.29C47.3883 11.9477 47.2956 11.6696 47.1102 11.4557C46.939 11.2417 46.6466 11.1348 46.233 11.1348H42.2966V16.7827H39.4726ZM42.2966 8.56751H45.6768C46.3471 8.56751 46.8677 8.38923 47.2385 8.03267C47.6236 7.66185 47.8161 7.17692 47.8161 6.57789V6.36396C47.8161 5.76493 47.6307 5.28714 47.2599 4.93058C46.8891 4.55975 46.3614 4.37434 45.6768 4.37434H42.2966V8.56751ZM51.963 16.7827L55.8995 1.80709H60.82L64.7565 16.7827H61.8469L61.034 13.4881H55.6855L54.8726 16.7827H51.963ZM56.3487 10.878H60.3708L58.5523 3.58277H58.1672L56.3487 10.878Z" fill="#0D0D0D"/>
<path d="M65.4185 0H97.9634L103 18.4224H70.1668L65.4185 0Z" fill="#38A4FF"/>
<path d="M75.1747 15.1582V5.46962H81.2647V7.13052H77.0017V9.46962H80.9325V11.1305H77.0017V15.1582H75.1747ZM82.5682 15.1582V5.46962H84.3952V15.1582H82.5682ZM88.4599 15.1582V7.13052H85.6363V5.46962H93.1104V7.13052H90.2869V15.1582H88.4599Z" fill="#FCFCFC"/>
</svg>
