<svg width="174" height="31" viewBox="0 0 174 31" fill="none" xmlns="http://www.w3.org/2000/svg">
<path d="M8.208 28V7.12H0.864V2.8H20.304V7.12H12.96V28H8.208ZM23.5401 28V2.8H39.7401V7.12H28.2921V13.132H38.7321V17.452H28.2921V23.68H39.9561V28H23.5401ZM43.4737 28V2.8H54.4177C56.0017 2.8 57.3817 3.076 58.5577 3.628C59.7337 4.18 60.6457 4.96 61.2937 5.968C61.9417 6.976 62.2657 8.164 62.2657 9.532V9.964C62.2657 11.476 61.9057 12.7 61.1857 13.636C60.4657 14.572 59.5777 15.256 58.5217 15.688V16.336C59.4817 16.384 60.2257 16.72 60.7537 17.344C61.2817 17.944 61.5457 18.748 61.5457 19.756V28H56.7937V20.44C56.7937 19.864 56.6377 19.396 56.3257 19.036C56.0377 18.676 55.5457 18.496 54.8497 18.496H48.2257V28H43.4737ZM48.2257 14.176H53.9137C55.0417 14.176 55.9177 13.876 56.5417 13.276C57.1897 12.652 57.5137 11.836 57.5137 10.828V10.468C57.5137 9.46 57.2017 8.656 56.5777 8.056C55.9537 7.432 55.0657 7.12 53.9137 7.12H48.2257V14.176ZM66.2197 28V2.8H77.1638C78.7478 2.8 80.1278 3.076 81.3038 3.628C82.4798 4.18 83.3918 4.96 84.0398 5.968C84.6878 6.976 85.0117 8.164 85.0117 9.532V9.964C85.0117 11.476 84.6518 12.7 83.9318 13.636C83.2118 14.572 82.3238 15.256 81.2678 15.688V16.336C82.2278 16.384 82.9718 16.72 83.4998 17.344C84.0278 17.944 84.2918 18.748 84.2918 19.756V28H79.5398V20.44C79.5398 19.864 79.3838 19.396 79.0718 19.036C78.7838 18.676 78.2918 18.496 77.5958 18.496H70.9718V28H66.2197ZM70.9718 14.176H76.6598C77.7878 14.176 78.6638 13.876 79.2878 13.276C79.9358 12.652 80.2598 11.836 80.2598 10.828V10.468C80.2598 9.46 79.9478 8.656 79.3238 8.056C78.6998 7.432 77.8118 7.12 76.6598 7.12H70.9718V14.176ZM87.2378 28L93.8618 2.8H102.142L108.766 28H103.87L102.502 22.456H93.5018L92.1338 28H87.2378ZM94.6178 18.064H101.386L98.3258 5.788H97.6778L94.6178 18.064Z" fill="#FCFCFC"/>
<path d="M109.88 0H164.644L173.12 31H117.87L109.88 0Z" fill="#38A4FF"/>
<path d="M126.297 24.68V8.37669H136.545V11.1715H129.371V15.1076H135.986V17.9025H129.371V24.68H126.297ZM138.738 24.68V8.37669H141.813V24.68H138.738ZM148.652 24.68V11.1715H143.901V8.37669H156.478V11.1715H151.727V24.68H148.652Z" fill="#FCFCFC"/>
</svg>
